<svg width="36" height="36" viewBox="0 0 36 36" fill="none" xmlns="http://www.w3.org/2000/svg">
<path d="M0 6C0 2.68629 2.68629 0 6 0H30C33.3137 0 36 2.68629 36 6V30C36 33.3137 33.3137 36 30 36H6C2.68629 36 0 33.3137 0 30V6ZM9.25 16.5C8.55964 16.5 8 17.0596 8 17.75C8 18.4404 8.55964 19 9.25 19H19.75C20.4404 19 21 18.4404 21 17.75C21 17.0596 20.4404 16.5 19.75 16.5H9.25ZM8 25.75C8 26.4404 8.55964 27 9.25 27H26.75C27.4404 27 28 26.4404 28 25.75C28 25.0596 27.4404 24.5 26.75 24.5H9.25C8.55964 24.5 8 25.0596 8 25.75ZM9.25 8.5C8.55964 8.5 8 9.05964 8 9.75C8 10.4404 8.55964 11 9.25 11H26.75C27.4404 11 28 10.4404 28 9.75C28 9.05964 27.4404 8.5 26.75 8.5H9.25Z" fill="var(--fill-0, #242424)"/>
</svg>
